<?xml version="1.0" encoding="UTF-8" standalone="no"?>
<!-- Created with Inkscape (http://www.inkscape.org/) -->

<svg
   xmlns:dc="http://purl.org/dc/elements/1.1/"
   xmlns:cc="http://creativecommons.org/ns#"
   xmlns:rdf="http://www.w3.org/1999/02/22-rdf-syntax-ns#"
   xmlns:svg="http://www.w3.org/2000/svg"
   xmlns="http://www.w3.org/2000/svg"
   xmlns:sodipodi="http://sodipodi.sourceforge.net/DTD/sodipodi-0.dtd"
   xmlns:inkscape="http://www.inkscape.org/namespaces/inkscape"
   id="svg2"
   version="1.1"
   inkscape:version="0.47 r22583"
   width="520"
   height="130"
   sodipodi:docname="Logo Bleach.svg">
  <metadata
     id="metadata8">
    <rdf:RDF>
      <cc:Work
         rdf:about="">
        <dc:format>image/svg+xml</dc:format>
        <dc:type
           rdf:resource="http://purl.org/dc/dcmitype/StillImage" />
        <dc:title />
      </cc:Work>
    </rdf:RDF>
  </metadata>
  <defs
     id="defs6" />
  <sodipodi:namedview
     pagecolor="#ffffff"
     bordercolor="#666666"
     borderopacity="1"
     objecttolerance="10"
     gridtolerance="10"
     guidetolerance="10"
     inkscape:pageopacity="0"
     inkscape:pageshadow="2"
     inkscape:window-width="640"
     inkscape:window-height="480"
     id="namedview4"
     showgrid="false"
     inkscape:zoom="2"
     inkscape:cx="329.1552"
     inkscape:cy="-3.4263536"
     inkscape:current-layer="svg2"
     inkscape:object-nodes="true"
     inkscape:snap-smooth-nodes="true" />
  <path
     style="fill:#2074ba;fill-opacity:1;stroke:none"
     d="m 81,117 356.5,0 c 18.22743,0 29.14657,3 39.5,3 22.13233,0 33,-9.76865 33,-28 0,-8.465968 -1.8232,-14.524313 -3.5,-17.5 1.81196,12.9329 -6.25643,25.5 -22.5,25.5 -5.46793,0 -11.5,-3.344537 -11.5,-8 0,-9.591341 25,-6.698104 25,-20 0,-8.681 -18.5,-20.083576 -18.5,-26 0,-7.810984 16.5,-5.35453 16.5,-19 0,-5.188714 -6.98204,-15 -16.5,-15 -2.41838,0 -4.46588,0.302095 -6,1 3.91741,0 10,5.844314 10,9 0,7.517926 -22.5,9.470376 -22.5,21.5 0,7.250968 9.5,14.309586 9.5,21.5 0,7.306364 -4.14013,12 -8,12 -2.8162,0 -10.5,-4.355021 -10.5,-9 0,-3.867761 2,-7.206783 2,-12 0,-6.917249 -6.76067,-15.5 -17,-15.5 -2.21478,0 -3.65833,0.363657 -5.5,1 3.45969,2.879975 8.5,5.427972 8.5,12.5 0,10.415849 -3.7433,16.368072 -13,20.5 l -9,0 20,-54.5 -22.5,0 c -2.54445,0.681782 -5.87575,3.320699 -8,7 l 2,-7 -21,0 c -5.25574,1.40827 -7.83166,2.217768 -11.5,12 l -1.5,4 c 2.49913,-9.326877 -3.3871,-16 -9,-16 l -32.5,0 c -5.41479,0 -11.68782,5.328664 -13.5,10.040304 L 302.9,74.5 307,35 c 5.73444,-1.536538 7.57,-7.797125 9.5,-15 L 285,20 c -6.03148,1.61613 -8.08297,4.470619 -11.5,10 l -27.5,44.5 -21.5,0 4.55,-12.5 15.45,0 c 5.50253,-1.474398 8.04081,-7.822165 10.5,-17 l -19.8,0 3.3,-9 18.5,0 c 4.75272,-1.273488 8.23748,-7.556164 10.5,-16 l -42,0 c -5.66831,1.51882 -7.99648,4.263667 -11,12 L 198,74.5 180,74.5 200.5,20 179,20 c -4.69331,1.257567 -6.84726,2.643605 -10,10 l -3,7 c 1.96849,-7.346507 -2.23873,-15.188324 -9,-17 L 97,20 C 90.871021,21.642255 87,30.426986 87,37 L 109.5,37 95,75 C 88.104436,72.316946 80.5,65.514316 80.5,54 c 0,-5.919741 7.325799,-11.744724 9.5,-13 -0.848587,-0.848587 -3.710723,-1 -6,-1 -10.318112,0 -17.5,8.510595 -17.5,17 0,2.911769 2,7.826987 2,11 0,4.719827 -5.305323,8.5 -10.5,8.5 -5.469561,0 -8,-6.819729 -8,-11.5 0,-8.104577 9.5,-11.651149 9.5,-21.5 0,-11.868136 -22,-14.111091 -22,-21.5 0,-3.732761 5.504513,-9 9.5,-9 -1.421515,-1.298499 -4.211787,-1 -6.5,-1 -8.963716,0 -16,9.221888 -16,16 0,11.269587 17,10.684578 17,18 0,8.827242 -18.5,15.71179 -18.5,26 0,13.840745 25,12.027473 25,20 0,3.901451 -6.602184,8 -12,8 -16.704502,0 -24.791777,-14.580945 -22,-25 -1.398938,0.807677 -4,9.365576 -4,17 0,15.17689 10.658299,28 32.5,28 10.646159,0 27.942904,-3 38.5,-3 z"
     id="path3668" />
  <path
     style="fill:#ee1d23;fill-opacity:1;stroke:none"
     d="m 93,94 c -2.99016,0.801211 -7,5.035564 -7,8 l 107,0 c 2.92524,-0.78382 7,-5.021935 7,-8 L 93,94 z m 235,0 c -2.99016,0.801211 -7,5.035564 -7,8 l 107,0 c 2.92524,-0.78382 7,-5.021935 7,-8 L 328,94 z M 93,106 c -2.99016,0.80121 -7,5.03556 -7,8 l 107,0 c 2.92524,-0.78382 7,-5.02193 7,-8 l -107,0 z m 235,0 c -2.99016,0.80121 -7,5.03556 -7,8 l 107,0 c 2.92524,-0.78382 7,-5.02193 7,-8 l -107,0 z"
     id="path2818" />
  <path
     style="fill:#ffffff;fill-opacity:1;stroke:none"
     d="m 37,16 c -3.501837,0 -9,5.886938 -9,11 0,12.786207 16.5,7.416487 16.5,19.5 0,8.040219 -18.5,17.166804 -18.5,25.5 0,11.680073 24.5,7.441132 24.5,20 0,4.191222 -4.154069,10.5 -14.5,10.5 -14.653734,0 -21.010983,-9.054921 -23,-12.5 0,16.86728 7.620548,27 33,27 14.063452,0 23.28889,-0.46009 36.5,-4 0.440489,-1.64393 1.375622,-3.87562 3.5,-6 l 0,-2 -4,0 c 0,-6.50759 4.290379,-11.738061 9,-13 l 0,-2 -11,0 C 80,86.031651 84.070408,76.954855 89.5,75.5 83.281755,71.909895 78,64.368011 78,54 c 0,-3.980526 1.336058,-7.836058 3.5,-10 -6.535214,0 -12,6.803798 -12,12.5 0,3.213394 2.002282,7.695793 2,11.5 -0.0039,6.496966 -8.774661,11.5 -13.5,11.5 -7.747748,0 -10.5,-9.694407 -10.5,-14.5 0,-10.084201 9,-13.891398 9,-21 0,-11.386276 -22,-11.093763 -22,-22 0,-2.56298 1.485892,-4.985892 2.5,-6 z m 446,0 c 1.01409,1.014108 2.5,3.43702 2.5,6 0,10.906237 -22,10.613724 -22,22 0,7.108602 9,10.915799 9,21 0,4.805593 -2.75235,14.5 -10.5,14.5 -4.72528,0 -13.496,-5.003034 -13.5,-11.5 -0.002,-3.804207 2,-8.286606 2,-11.5 0,-5.696202 -5.46488,-12.5 -12,-12.5 2.16391,2.163942 3.5,6.019474 3.5,10 0,10.368011 -4.83891,18.097592 -9,20.5 l 6,0 c 0,5.447023 -3.85378,14.621074 -9,16 l 11,0 c 0,5.010246 -4.53054,11.33831 -7,12 l 7,0 c 0,3.56202 -3.59759,9.85628 -6,10.5 17.78354,0 30.78469,4 42,4 23.07142,0 30,-9.59257 30,-27 -1.989,3.445079 -8.34645,12.5 -23,12.5 -10.34579,0 -14.5,-6.308778 -14.5,-10.5 0,-12.558868 24.5,-8.319927 24.5,-20 0,-8.333196 -18.5,-17.459781 -18.5,-25.5 0,-12.083513 16.5,-6.713793 16.5,-19.5 0,-5.113062 -5.49821,-11 -9,-11 z"
     id="path3598" />
  <path
     style="fill:#ffffff;fill-opacity:1;stroke:none"
     d="m 205.5,92.5 -1.40625,4 14.5,0 -5.59375,16 9.5,0 7,-20 -24,0 z m 26,0 -2.96875,8.5 4.5,0 2.96875,-8.5 -4.5,0 z m 6,0 -2.96875,8.5 4.5,0 2.96875,-8.5 -4.5,0 z m 8,0 -4.1875,12 9.5,0 4.1875,-12 -9.5,0 z m 12.5,0 -7,20 9.5,0 7,-20 -9.5,0 z m 59.5,1 -20.5,1.5 -1.0625,3 5.28125,-0.375 -1.375,3.875 -6.34375,0 -1.0625,3 6.375,0 -2.8125,8 9.5,0 2.8125,-8 7.625,0 1.0625,-3 -7.65625,0 1.625,-4.59375 5.46875,-0.40625 1.0625,-3 z m -48,8 -1.0625,3 18,0 1.0625,-3 -18,0 z"
     id="path3605" />
  <path
     style="fill:#ee1d23;fill-opacity:1;stroke:#ffffff;stroke-width:2;stroke-linecap:butt;stroke-linejoin:miter;stroke-miterlimit:4.19999981;stroke-opacity:1;stroke-dasharray:none"
     d="m 332.5,25 c -3.01665,0.808308 -7.29282,3.884685 -8.5,7 l -15.5,40 c -1.06314,2.743588 -0.83103,4.831585 -0.25,7 l -10.25,0 5,-47 3,0 c 1.2915,-0.346058 3.35051,-4.576072 4,-7 l -24.5,0 c -2.7294,0.731339 -4.97287,1.756585 -7,5 l -35,56 8.5,0 c 2.5483,-0.682816 4.35976,-3.629545 6.5,-7 l 10.16,-16 14.64,0 -1.3,16 c -0.30045,3.697791 1.75035,6.397209 4,7 l 56.5,0 c 2.45953,-0.659029 9.6222,-3.50983 12.5,-11 l 7.3,-19 -17.1,0 -7.2,18.5 c -0.91504,2.351141 -2.30562,4.045991 -4,4.5 l -9,0 c -1.21951,-0.326766 -1.26625,-2.533304 -0.5,-4.5 l 15,-38.5 c 0.99424,-2.551892 2.13802,-3.635058 3.5,-4 l 10,0 c 0.9105,0.525678 0.77509,2.008944 0,4 l -5.45,14 17.05,0 6.9,-18 c 0.71168,-1.856544 -2.09233,-6.354866 -4.5,-7 l -34.5,0 z m -107,0 c -2.14445,0.574602 -5.10387,3.322388 -6.5,7 l -20.5,54 37,0 c 2.63073,-0.704903 4.57258,-3.538811 5.5,-7 l -22.5,0 7.95,-22 17.55,0 c 2.23274,-0.598261 4.31208,-4.432641 5,-7 l -20,0 6.5,-18 19.5,0 c 1.77828,-0.476488 4.64451,-3.80728 5.5,-7 l -35,0 z M 181,25 c -2.76888,0.741918 -4.51867,3.190859 -6,7 l -21,54 36,0 c 2.7756,-0.743721 5.08035,-3.567802 6,-7 l -22.5,0 20,-54 -12.5,0 z m -83,0 c -2.914937,0.781055 -5,4.743622 -5,7 l 23,0 -17.5,47 -7,0 c -2.868593,0.768637 -5,4.834126 -5,7 l 48.4375,0 C 146.02696,83.028588 151.5,70.944251 151.5,61 c 0,-3.099179 -0.0562,-5.657375 -3.03125,-7.375 C 153.98892,52.145875 160.5,42.591316 160.5,32 c 0,-1.909468 -2.28348,-6.406085 -4.5,-7 l -58,0 z m 319,0 c -2.18573,0.585666 -4.25003,3.715417 -5.5,7 l -6.85,18 -12.15,0 9.5,-25 -14,0 c -2.16188,0.579274 -4.06454,3.124256 -5.5,7 l -20,54 12.5,0 c 2.8131,-0.753769 4.99789,-3.032172 6.5,-7 l 7.95,-21 12.2,0 -10.65,28 38,0 c 1.94352,-0.520764 3.75889,-4.234132 4.5,-7 l -22.5,0 20,-54 -14,0 z m -284,7 11,0 c 1.50553,0.86922 1.35546,2.570955 1,3.5 L 140.6,47 c -0.39108,1.022153 -1.20537,2.492336 -3.1,3 L 126.135,50 133,32 z M 285.5,36.5 284,55 273.75,55 285.5,36.5 z M 123.475,57 134.5,57 c 1.13022,0.65253 1.56843,1.888971 0.95,3.5 L 129.5,76 c -0.35825,0.933262 -1.77965,2.673008 -3,3 l -11.4,0 8.375,-22 z"
     id="path2816" />
</svg>
